<svg width="8282" height="3578" viewBox="0 0 8282 3578" fill="none" xmlns="http://www.w3.org/2000/svg">
<path d="M3040.3 1350.76L3043.46 1354.63L3045.21 1353.2L3045.3 1350.94L3040.3 1350.76ZM3078.45 1305.39L3079.82 1300.58L3078.45 1305.39ZM3221.77 1289.92L3223.35 1294.67L3221.77 1289.92ZM3354.78 1239.4L3352.29 1235.06L3352.29 1235.06L3354.78 1239.4ZM3463.04 1170.32L3460.86 1165.82L3460.58 1165.96L3460.32 1166.13L3463.04 1170.32ZM3590.89 1114.64L3589.44 1109.86L3589.44 1109.86L3590.89 1114.64ZM3827 1122.89L3822.03 1122.37L3822 1122.59L3822 1122.81L3827 1122.89ZM3516.65 1016.69L3515.35 1021.52L3515.35 1021.52L3516.65 1016.69ZM3274.35 1168.26L3274.04 1163.27L3273.8 1163.28L3273.56 1163.32L3274.35 1168.26ZM3907.13 1244.46L3905.15 1239.87L3905.15 1239.87L3907.13 1244.46ZM4008.8 1182.86L4012.4 1186.32L4012.4 1186.32L4008.8 1182.86ZM4023.32 1100.72L4027.08 1097.43L4027.08 1097.43L4023.32 1100.72ZM3991.24 978.084L3996.17 977.262L3996.17 977.262L3991.24 978.084ZM3514.93 777.79L3509.93 777.88L3509.93 777.886L3514.93 777.79ZM3581.74 750.999L3586.16 753.35L3577.52 748.321L3581.74 750.999ZM3623.95 830.042L3620.77 826.177L3620.72 826.221L3620.67 826.266L3623.95 830.042ZM3559.03 769.101L3561.05 773.672L3559.03 769.101ZM3656.07 853.444L3655.94 858.442L3655.95 858.442L3655.96 858.443L3656.07 853.444ZM3682.04 854.002L3681.93 859.001L3682.12 859.005L3682.31 858.995L3682.04 854.002ZM3720.37 790.054L3724.19 786.83L3724.08 786.699L3723.96 786.576L3720.37 790.054ZM3636.61 569.341L3640.18 565.836L3640.17 565.833L3636.61 569.341ZM3567.42 632.111L3563.7 635.458L3563.76 635.525L3563.82 635.589L3567.42 632.111ZM4042.9 982.75L4039.33 986.255L4039.33 986.255L4042.9 982.75ZM4073.3 920.815L4078.07 919.309L4078.07 919.309L4073.3 920.815ZM4046.1 871.984L4051.09 872.234L4051.09 872.234L4046.1 871.984ZM3910.12 629.684L3908 634.215L3908 634.215L3910.12 629.684ZM3930.75 868.639L3927.18 872.143L3927.18 872.143L3930.75 868.639ZM3942.26 931.941L3944.98 927.747L3944.76 927.605L3944.53 927.487L3942.26 931.941ZM3968.92 1031.91L3964.8 1029.08L3964.8 1029.08L3968.92 1031.91ZM3970.43 926.015L3966.01 928.338L3966.01 928.338L3970.43 926.015ZM3238.4 251.256L3235.2 247.415L3235.2 247.415L3238.4 251.256ZM3291.68 219.022L3288.12 222.53L3288.12 222.53L3291.68 219.022ZM4042.27 785.361L4038.31 788.422L4038.31 788.422L4042.27 785.361ZM4157.66 1099.53L4154.1 1103.04L4154.1 1103.04L4157.66 1099.53ZM4213.7 1226.34L4209.11 1228.34L4209.11 1228.34L4213.7 1226.34ZM4093.75 1187.86L4091.56 1192.35L4091.56 1192.35L4093.75 1187.86ZM4090.81 1185.7L4087.18 1189.14L4087.18 1189.14L4090.81 1185.7ZM3846.8 928.463L3841.81 928.691L3841.81 928.691L3846.8 928.463ZM3853.79 918.646L3852.57 913.798L3852.57 913.798L3853.79 918.646ZM3948.66 1014.13L3944.66 1011.13L3944.66 1011.13L3948.66 1014.13ZM3945.02 1016.96L3943.11 1012.34L3943.11 1012.34L3945.02 1016.96ZM4053.09 885.354L4049.38 888.702L4049.38 888.702L4053.09 885.354ZM3418.6 599.999L3422.24 603.426L3422.24 603.426L3418.6 599.999ZM2885.84 910.553L2886.22 915.538L2886.22 915.538L2885.84 910.553ZM2892.37 1453.28L2890.51 1448.64L2890.51 1448.64L2892.37 1453.28ZM2585.13 1579.94L2587.24 1584.47L2585.13 1579.94ZM2388.25 1741.71L2391.51 1745.49L2391.51 1745.49L2388.25 1741.71ZM2259.08 1823.22L2256.43 1818.98L2256.43 1818.98L2259.08 1823.22ZM3622.06 554.566L3618.5 558.074L3618.5 558.074L3622.06 554.566ZM5990.2 1764.58L5993.98 1761.3L5993.84 1761.14L5993.68 1760.99L5990.2 1764.58ZM5933.22 1747.72L5931.52 1743.02L5931.52 1743.02L5933.22 1747.72ZM5228.64 2440.26L5232.31 2443.66L5232.31 2443.66L5228.64 2440.26ZM5288.19 2647.56L5284.08 2650.4L5288.19 2647.56ZM5429.59 2949.76L5434.59 2949.76L5429.59 2949.76ZM4913.07 3406.14L4917.77 3407.85L4917.77 3407.85L4913.07 3406.14ZM5046.81 2501.92L5046.17 2496.96L5046.81 2501.92ZM4878.13 2471.61L4879.34 2476.46L4879.34 2476.46L4878.13 2471.61ZM4709.44 2579.67L4705.85 2576.2L4709.44 2579.67ZM4494.63 2693.01L4494.63 2688.01L4494.63 2688.01L4494.63 2693.01ZM4198.11 2823.48L4200.89 2827.64L4200.89 2827.64L4198.11 2823.48ZM3938.5 2973.71L3936.72 2969.04L3938.5 2973.71ZM3779.04 3030.38L3781.43 3034.77L3781.43 3034.77L3779.04 3030.38ZM2947.75 3322.83L2943.46 3320.26L2943.46 3320.26L2947.75 3322.83ZM2389.6 3170.27L2385.8 3173.52L2385.8 3173.52L2389.6 3170.27ZM4940.49 3385.02L4943.32 3389.14L4943.32 3389.14L4940.49 3385.02ZM4488.63 2763.34L4484.59 2766.28L4484.59 2766.28L4488.63 2763.34ZM5187.71 2563.39L5190.79 2559.44L5190.79 2559.44L5187.71 2563.39ZM4593.8 2908.03L4589.76 2910.97L4589.76 2910.97L4593.8 2908.03ZM4665.92 3007.25L4661.87 3010.19L4661.87 3010.19L4665.92 3007.25ZM4731.44 3097.39L4727.39 3100.33L4727.39 3100.33L4731.44 3097.39ZM4763.91 3142.07L4759.87 3145.01L4759.87 3145.01L4763.91 3142.07ZM5380.13 2831.42L5384.66 2829.29L5384.66 2829.29L5380.13 2831.42ZM4799.58 3191.15L4795.54 3194.09L4795.54 3194.09L4799.58 3191.15ZM4874.89 3294.76L4870.85 3297.7L4870.85 3297.7L4874.89 3294.76ZM4907.69 3339.89L4903.65 3342.83L4903.65 3342.83L4907.69 3339.89ZM6005.75 1852.42L6001.17 1850.42L6001.17 1850.42L6005.75 1852.42ZM5945.14 1920.11L5942.81 1915.68L5942.75 1915.71L5942.69 1915.75L5945.14 1920.11ZM5864.31 1970.62L5868.26 1973.69L5864.31 1970.62ZM5967.92 1903.68L5964.6 1899.95L5964.6 1899.95L5967.92 1903.68ZM6126.99 1908.99L6131.98 1908.71L6126.99 1908.99ZM5456.31 3007.24L5459.03 3011.44L5459.03 3011.44L5456.31 3007.24ZM5673.45 2141.2C5671.26 2142.89 5670.87 2146.03 5672.56 2148.21C5674.25 2150.39 5677.39 2150.79 5679.58 2149.1L5673.45 2141.2ZM2531.19 1618.06L2534.33 1621.95L2531.19 1618.06ZM4152.42 2851.96L4155.01 2856.23L4155.01 2856.23L4152.42 2851.96ZM2492.2 1650.53L2495.44 1654.33L2495.44 1654.33L2492.2 1650.53ZM4551.03 2671.33L4553.09 2675.89L4553.09 2675.89L4551.03 2671.33ZM2815.86 1484.21L2813.98 1479.58L2815.86 1484.21ZM4911.31 2474.62L4912.37 2469.73L4911.31 2474.62ZM3831.39 611.594L3830.4 616.495L3830.4 616.495L3831.39 611.594ZM4166.82 1118.83L4171.4 1116.84L4171.4 1116.84L4166.82 1118.83ZM4088.36 1183.11L4084.73 1186.55L4084.73 1186.55L4088.36 1183.11ZM2941.33 1424.94L2944.12 1429.08L2944.12 1429.08L2941.33 1424.94ZM4044.69 801.297L4049.69 801.138L4044.69 801.297ZM3482.78 1160.9L3480.65 1156.38L3482.78 1160.9ZM3577.72 1119.21L3579.48 1123.89L3577.72 1119.21ZM3094.69 1307.5L3094.74 1312.5L3094.69 1307.5ZM2322.37 1026.06L2317.85 1028.21L2317.85 1028.21L2322.37 1026.06ZM2344.83 1073.4L2340.31 1075.54L2340.31 1075.54L2344.83 1073.4ZM2829.35 973.063L2833.9 970.991L2829.35 973.063ZM2429.45 1251.77L2424.93 1253.92L2424.93 1253.92L2429.45 1251.77ZM2476.41 1350.76L2471.89 1352.9L2471.89 1352.9L2476.41 1350.76ZM2968.09 1251.77L2972.44 1249.3L2972.44 1249.3L2968.09 1251.77ZM2519.85 1442.34L2515.34 1444.49L2519.85 1442.34ZM2988.17 1285.8L2992.43 1283.18L2988.17 1285.8ZM3010.15 1319.12L3014.21 1316.19L3014.21 1316.19L3010.15 1319.12ZM5855.32 2094.11L5858.65 2097.84L5855.32 2094.11ZM5792.38 2028.61L5795.39 2032.6L5792.38 2028.61ZM5790.88 2029.97L5794.58 2033.34L5790.88 2029.97ZM3684.28 1009.57L3686.21 1004.96L3684.28 1009.57ZM3678.77 1008.76L3678.22 1003.79L3678.22 1003.79L3678.77 1008.76ZM2759.15 850.608L2757.56 845.866L2759.15 850.608ZM2772.37 855.982L2767.93 858.284L2772.37 855.982ZM3970.4 925.952L3965.97 928.277L3970.4 925.952ZM3704.08 3079.45L3701.27 3075.32L3704.08 3079.45ZM3700.92 3080.93L3702.26 3085.74L3700.92 3080.93ZM3750.32 1199.76L3755.17 1198.53L3755.17 1198.53L3750.32 1199.76ZM3751.49 1202.56L3755.74 1199.92L3751.49 1202.56ZM3677.92 1104.36L3677.98 1109.36L3677.92 1104.36ZM3684.59 1106.53L3681.66 1110.58L3684.59 1106.53ZM3726.8 1130.25L3725.12 1134.96L3726.8 1130.25ZM3734.81 1138.63L3729.96 1139.86L3734.81 1138.63ZM5759.14 2097.85L5761.16 2102.42L5759.14 2097.85ZM3221.95 1184L3218.48 1180.4L3221.95 1184ZM3219.48 1187.56L3215.41 1184.66L3215.41 1184.66L3219.48 1187.56ZM5943.37 2015.42L5940.04 2011.7L5943.37 2015.42ZM5947.09 2006.98L5942.09 2007L5947.09 2006.98ZM5415.22 3087.08L5417.82 3091.35L5415.22 3087.08ZM5420.36 3078.7L5425.35 3079.13L5420.36 3078.7ZM3910.81 1147.31L3907.07 1150.63L3910.81 1147.31ZM3908.04 1140.26L3903.04 1140.38L3903.04 1140.38L3908.04 1140.26ZM3827.23 1186.18L3831.68 1183.89L3827.23 1186.18ZM3826.01 1180.97L3821.01 1180.88L3826.01 1180.97ZM3156.9 1286.95L3155.88 1291.85L3156.9 1286.95ZM3045.3 1350.94C3045.62 1342.09 3047.86 1329.6 3053.13 1320.53C3055.73 1316.05 3058.9 1312.72 3062.63 1310.87C3066.25 1309.07 3070.9 1308.43 3077.08 1310.2L3079.82 1300.58C3071.57 1298.22 3064.32 1298.87 3058.18 1301.91C3052.16 1304.89 3047.72 1309.94 3044.48 1315.51C3038.07 1326.54 3035.66 1340.86 3035.3 1350.57L3045.3 1350.94ZM3155.88 1291.85C3164.94 1293.73 3177.47 1295.81 3189.77 1296.77C3201.86 1297.7 3214.5 1297.62 3223.35 1294.67L3220.19 1285.18C3213.39 1287.44 3202.51 1287.72 3190.54 1286.8C3178.77 1285.88 3166.68 1283.88 3157.91 1282.06L3155.88 1291.85ZM3223.35 1294.67C3229.9 1292.48 3235.23 1288.07 3239.66 1283.24C3244.09 1278.42 3247.96 1272.8 3251.38 1267.92C3254.94 1262.84 3257.91 1258.72 3260.82 1256.05C3263.66 1253.44 3265.42 1253.12 3266.88 1253.51L3269.46 1243.85C3263.18 1242.18 3257.98 1245.08 3254.05 1248.69C3250.19 1252.24 3246.59 1257.33 3243.19 1262.18C3239.66 1267.22 3236.18 1272.24 3232.3 1276.47C3228.42 1280.7 3224.46 1283.75 3220.19 1285.18L3223.35 1294.67ZM3266.88 1253.51C3271.44 1254.73 3278.46 1255.16 3286.22 1255.13C3294.12 1255.1 3303.27 1254.57 3312.36 1253.66C3321.44 1252.74 3330.55 1251.43 3338.35 1249.81C3345.97 1248.22 3352.91 1246.23 3357.26 1243.74L3352.29 1235.06C3349.43 1236.7 3343.86 1238.45 3336.31 1240.02C3328.93 1241.55 3320.19 1242.82 3311.36 1243.71C3302.53 1244.6 3293.7 1245.1 3286.17 1245.13C3278.49 1245.16 3272.63 1244.7 3269.46 1243.85L3266.88 1253.51ZM3357.26 1243.74C3368.96 1237.05 3434.58 1194.73 3465.76 1174.52L3460.32 1166.13C3428.94 1186.47 3363.68 1228.55 3352.29 1235.06L3357.26 1243.74ZM3592.34 1119.43C3617.18 1111.9 3657.48 1109.6 3677.98 1109.36L3677.86 1099.36C3657.31 1099.61 3615.75 1101.89 3589.44 1109.86L3592.34 1119.43ZM3681.66 1110.58C3691.54 1117.73 3709.62 1129.42 3725.12 1134.96L3728.49 1125.54C3714.36 1120.49 3697.21 1109.49 3687.52 1102.48L3681.66 1110.58ZM3729.96 1139.86L3745.47 1200.99L3755.17 1198.53L3739.66 1137.4L3729.96 1139.86ZM3747.24 1205.2C3753.59 1215.41 3765.81 1228.14 3783.05 1234.59C3800.54 1241.13 3822.68 1241.01 3848.08 1226.19L3843.04 1217.55C3820.07 1230.95 3801.07 1230.65 3786.56 1225.22C3771.8 1219.7 3761.17 1208.67 3755.74 1199.92L3747.24 1205.2ZM3850.01 1219.59L3831.68 1183.89L3822.78 1188.46L3841.11 1224.16L3850.01 1219.59ZM3831.01 1181.05L3832 1122.98L3822 1122.81L3821.01 1180.88L3831.01 1181.05ZM3831.97 1123.42C3833.39 1109.96 3833.26 1089.46 3828.09 1071.7C3822.95 1054.05 3812.21 1037.37 3791.37 1035.43L3790.45 1045.39C3805.08 1046.75 3813.76 1058.25 3818.49 1074.49C3823.18 1090.61 3823.36 1109.71 3822.03 1122.37L3831.97 1123.42ZM3791.37 1035.43C3758.11 1032.34 3709.2 1014.58 3686.21 1004.96L3682.35 1014.18C3705.4 1023.83 3755.54 1042.14 3790.45 1045.39L3791.37 1035.43ZM3678.22 1003.79C3654.71 1006.38 3619.52 1009.77 3587.6 1011.81C3571.64 1012.82 3556.56 1013.5 3544.19 1013.57C3531.6 1013.64 3522.45 1013.08 3517.95 1011.86L3515.35 1021.52C3521.35 1023.14 3531.83 1023.64 3544.25 1023.57C3556.89 1023.5 3572.19 1022.81 3588.24 1021.79C3620.35 1019.74 3655.71 1016.33 3679.31 1013.73L3678.22 1003.79ZM3517.95 1011.86C3509.71 1009.65 3503 1011.36 3497.24 1015.57C3491.88 1019.49 3487.37 1025.55 3482.95 1031.68C3473.84 1044.3 3463.67 1059.25 3444.3 1068.93L3448.78 1077.87C3470.65 1066.93 3482.13 1049.91 3491.06 1037.53C3495.66 1031.16 3499.28 1026.46 3503.14 1023.65C3506.59 1021.12 3510.19 1020.13 3515.35 1021.52L3517.95 1011.86ZM3444.3 1068.93C3433.66 1074.25 3420.58 1082.74 3406.39 1092.35C3392.09 1102.03 3376.62 1112.87 3360.8 1123.22C3345.01 1133.55 3329.11 1143.25 3314.15 1150.54C3299.11 1157.86 3285.44 1162.55 3274.04 1163.27L3274.67 1173.25C3288.01 1172.41 3303.08 1167.05 3318.53 1159.53C3334.05 1151.96 3350.36 1142 3366.28 1131.59C3382.17 1121.19 3397.89 1110.18 3412 1100.63C3426.23 1090.99 3438.8 1082.86 3448.78 1077.87L3444.3 1068.93ZM3273.56 1163.32C3256.01 1166.13 3243.59 1169.19 3234.98 1172.07C3226.55 1174.9 3221.25 1177.73 3218.48 1180.4L3225.42 1187.6C3226.52 1186.53 3230.05 1184.27 3238.16 1181.55C3246.09 1178.89 3257.94 1175.95 3275.14 1173.19L3273.56 1163.32ZM3215.41 1184.66C3207.97 1195.07 3195.98 1210.09 3183.05 1222.84C3176.58 1229.22 3169.97 1234.94 3163.65 1239.23C3157.26 1243.57 3151.55 1246.17 3146.85 1246.82L3148.22 1256.73C3155.14 1255.77 3162.35 1252.19 3169.27 1247.5C3176.26 1242.75 3183.35 1236.59 3190.07 1229.96C3203.51 1216.7 3215.87 1201.22 3223.55 1190.47L3215.41 1184.66ZM3841.89 1225.27C3847.64 1231.48 3857.71 1240.04 3869.5 1245.8C3881.23 1251.53 3895.56 1254.89 3909.11 1249.05L3905.15 1239.87C3895.46 1244.04 3884.42 1241.96 3873.89 1236.82C3863.42 1231.7 3854.32 1223.97 3849.23 1218.48L3841.89 1225.27ZM3909.11 1249.05C3923.68 1242.77 3935.82 1236.25 3943.66 1226.8C3951.77 1217.02 3954.79 1204.75 3952.65 1188.23L3942.74 1189.51C3944.61 1204.03 3941.87 1213.3 3935.96 1220.42C3929.77 1227.87 3919.63 1233.62 3905.15 1239.87L3909.11 1249.05ZM3951.43 1185.55L3914.55 1143.99L3907.07 1150.63L3943.96 1192.19L3951.43 1185.55ZM3913.03 1140.15L3911.13 1059.04L3901.13 1059.27L3903.04 1140.38L3913.03 1140.15ZM3945.48 1193.35C3952.3 1196.71 3963.59 1200.35 3975.8 1200.54C3988.08 1200.73 4001.75 1197.43 4012.4 1186.32L4005.19 1179.4C3997.01 1187.92 3986.39 1190.7 3975.96 1190.54C3965.46 1190.37 3955.61 1187.2 3949.91 1184.38L3945.48 1193.35ZM3519.93 777.701L3518.42 693.301L3508.42 693.48L3509.93 777.88L3519.93 777.701ZM3577.33 748.648C3570.9 760.727 3562.05 779.313 3556.49 795.805C3553.73 804.003 3551.66 812.015 3551.23 818.577C3551.01 821.849 3551.18 825.107 3552.11 827.963C3553.07 830.923 3554.94 833.68 3558.15 835.22L3562.47 826.204C3562.33 826.136 3561.96 825.943 3561.62 824.878C3561.24 823.708 3561.03 821.866 3561.21 819.231C3561.55 813.976 3563.29 806.942 3565.97 799.001C3571.29 783.218 3579.86 765.163 3586.16 753.35L3577.33 748.648ZM3558.15 835.22C3565.27 838.638 3577.07 842.749 3589.67 843.877C3602.21 845.001 3616.38 843.226 3627.22 833.818L3620.67 826.266C3612.74 833.148 3601.79 834.923 3590.56 833.917C3579.38 832.916 3568.75 829.217 3562.47 826.204L3558.15 835.22ZM3514.86 782.79C3525.68 782.937 3544.64 780.943 3561.05 773.672L3557 764.529C3542.28 771.049 3524.85 772.925 3514.99 772.791L3514.86 782.79ZM3561.05 773.672C3570.81 769.349 3580.07 762.981 3585.97 753.677L3577.52 748.321C3573.05 755.376 3565.7 760.674 3557 764.529L3561.05 773.672ZM3563.88 770.298C3567.65 754.997 3572.53 730.494 3574.94 706.565C3576.15 694.601 3576.75 682.671 3576.25 672.049C3575.76 661.538 3574.18 651.818 3570.7 644.586L3561.69 648.922C3564.29 654.33 3565.79 662.442 3566.26 672.515C3566.73 682.476 3566.17 693.881 3564.99 705.563C3562.64 728.925 3557.86 752.955 3554.17 767.904L3563.88 770.298ZM3627.12 833.907C3636.18 826.473 3649.89 812.313 3660.76 794.511L3652.23 789.3C3642 806.053 3629.05 819.382 3620.77 826.177L3627.12 833.907ZM3660.76 794.511C3670.19 779.073 3677.71 760.517 3677.82 740.991L3667.82 740.931C3667.72 757.991 3661.11 774.748 3652.23 789.3L3660.76 794.511ZM3651.49 791.871L3651.07 853.409L3661.07 853.478L3661.49 791.94L3651.49 791.871ZM3786.35 861.584C3763.77 853.6 3737.56 850.491 3717.2 849.344C3706.98 848.769 3698.15 848.684 3691.86 848.744C3688.72 848.773 3686.21 848.839 3684.48 848.898C3683.62 848.927 3682.94 848.955 3682.49 848.975C3682.26 848.985 3682.08 848.994 3681.96 849C3681.9 849.003 3681.85 849.005 3681.82 849.007C3681.8 849.008 3681.79 849.008 3681.78 849.009C3681.78 849.009 3681.77 849.009 3681.77 849.009C3681.77 849.01 3681.77 849.01 3681.77 849.01C3681.77 849.01 3681.77 849.01 3682.04 854.002C3682.31 858.995 3682.31 858.995 3682.31 858.995C3682.31 858.995 3682.31 858.995 3682.31 858.995C3682.31 858.995 3682.31 858.995 3682.31 858.995C3682.32 858.994 3682.33 858.994 3682.34 858.993C3682.37 858.992 3682.4 858.99 3682.46 858.987C3682.56 858.982 3682.72 858.975 3682.93 858.965C3683.36 858.946 3683.99 858.92 3684.82 858.892C3686.48 858.836 3688.9 858.772 3691.96 858.743C3698.07 858.686 3706.68 858.768 3716.64 859.329C3736.64 860.455 3761.75 863.493 3783.01 871.012L3786.35 861.584ZM3682.14 849.004L3656.18 848.445L3655.96 858.443L3681.93 859.001L3682.14 849.004ZM3788.5 863.074C3775.94 848.187 3759.86 829.126 3746.93 813.786C3740.46 806.117 3734.77 799.378 3730.7 794.556C3728.67 792.145 3727.04 790.214 3725.92 788.885C3725.36 788.221 3724.93 787.707 3724.63 787.359C3724.49 787.185 3724.38 787.053 3724.3 786.964C3724.26 786.92 3724.23 786.886 3724.22 786.864C3724.21 786.852 3724.2 786.844 3724.19 786.839C3724.19 786.836 3724.19 786.833 3724.19 786.832C3724.19 786.831 3724.19 786.831 3724.19 786.831C3724.19 786.83 3724.19 786.83 3720.37 790.054C3716.54 793.278 3716.54 793.278 3716.54 793.278C3716.54 793.279 3716.54 793.279 3716.55 793.28C3716.55 793.282 3716.55 793.282 3716.55 793.286C3716.55 793.291 3716.56 793.301 3716.57 793.312C3716.59 793.334 3716.62 793.368 3716.66 793.412C3716.73 793.501 3716.84 793.633 3716.99 793.807C3717.28 794.155 3717.72 794.668 3718.28 795.333C3719.4 796.661 3721.03 798.593 3723.06 801.004C3727.13 805.825 3732.81 812.565 3739.28 820.234C3752.22 835.573 3768.3 854.634 3780.86 869.522L3788.5 863.074ZM3723.96 786.576L3676.42 737.483L3669.23 744.439L3716.77 793.532L3723.96 786.576ZM3686.91 852.881C3684.88 844.071 3684.37 829.083 3689 816.583C3691.28 810.412 3694.74 805.072 3699.65 801.281C3704.52 797.531 3711.16 795.028 3720.35 795.054L3720.38 785.054C3709.23 785.023 3700.37 788.106 3693.55 793.361C3686.79 798.575 3682.38 805.659 3679.62 813.11C3674.16 827.854 3674.81 844.897 3677.16 855.123L3686.91 852.881ZM4012.4 1186.32C4029.49 1168.5 4037.36 1142.45 4035.93 1122.06L4025.95 1122.76C4027.2 1140.52 4020.19 1163.75 4005.19 1179.4L4012.4 1186.32ZM4035.93 1122.06C4035.26 1112.54 4032.52 1103.65 4027.08 1097.43L4019.56 1104.01C4023.04 1108 4025.37 1114.48 4025.95 1122.76L4035.93 1122.06ZM3676.42 737.483L3571.01 628.633L3563.82 635.589L3669.23 744.439L3676.42 737.483ZM3633.25 565.638L3564.06 628.408L3570.78 635.814L3639.97 573.044L3633.25 565.638ZM4045.6 986.956C4053 982.199 4063.39 973.284 4070.83 961.721C4078.3 950.117 4083.12 935.299 4078.07 919.309L4068.53 922.32C4072.38 934.517 4068.92 946.216 4062.42 956.308C4055.9 966.441 4046.64 974.401 4040.19 978.545L4045.6 986.956ZM3646.34 572.102L3640.18 565.836L3633.05 572.846L3639.2 579.112L3646.34 572.102ZM3837.82 766.94L3646.34 572.102L3639.2 579.111L3830.68 773.949L3837.82 766.94ZM3839.94 686.577C3835.99 696.637 3830.74 712.852 3827.76 728.981C3826.28 737.047 3825.33 745.234 3825.45 752.697C3825.57 760.075 3826.74 767.23 3829.88 772.876L3838.62 768.014C3836.63 764.444 3835.56 759.194 3835.45 752.535C3835.35 745.96 3836.18 738.477 3837.6 730.795C3840.43 715.429 3845.48 699.839 3849.25 690.232L3839.94 686.577ZM4046.46 979.246L3934.32 865.134L3927.18 872.143L4039.33 986.255L4046.46 979.246ZM3934.32 865.134L3837.82 766.94L3830.68 773.949L3927.18 872.143L3934.32 865.134ZM3941.92 770.057C3937.79 780.798 3932.07 798.528 3928.22 817.03C3924.41 835.326 3922.24 855.223 3925.9 869.853L3935.6 867.425C3932.53 855.148 3934.24 837.177 3938.01 819.068C3941.73 801.165 3947.29 783.954 3951.25 773.642L3941.92 770.057ZM4027.08 1097.43C4017.1 1086.02 3990.17 1058.61 3973.54 1041.89L3966.45 1048.94C3983.17 1065.75 4009.83 1092.9 4019.56 1104.01L4027.08 1097.43ZM3973.54 1041.89C3971.73 1040.07 3971.44 1037.07 3973.04 1034.75L3964.8 1029.08C3960.62 1035.15 3961.08 1043.53 3966.45 1048.94L3973.54 1041.89ZM3973.04 1034.75C3978.43 1026.91 3984.75 1016.66 3989.45 1006.52C3991.8 1001.45 3993.8 996.297 3995.05 991.416C3996.3 986.592 3996.91 981.691 3996.17 977.262L3986.3 978.906C3986.72 981.399 3986.44 984.763 3985.37 988.923C3984.31 993.027 3982.57 997.582 3980.38 1002.31C3975.99 1011.78 3970 1021.52 3964.8 1029.08L3973.04 1034.75ZM3996.17 977.262C3994.84 969.306 3991.19 959.164 3987.14 949.585C3983.05 939.91 3978.4 930.437 3974.86 923.691L3966.01 928.338C3969.45 934.9 3973.97 944.116 3977.93 953.477C3981.92 962.932 3985.18 972.171 3986.3 978.906L3996.17 977.262ZM3974.86 923.691C3972.86 919.88 3969.38 917.18 3965.23 916.149L3962.82 925.854C3964.23 926.203 3965.35 927.081 3966.01 928.338L3974.86 923.691ZM3965.23 916.149C3953.31 913.185 3918.11 904.315 3881.13 893.8C3843.97 883.232 3805.58 871.159 3786.91 861.826L3782.44 870.77C3802.1 880.6 3841.44 892.91 3878.4 903.418C3915.53 913.978 3950.85 922.879 3962.82 925.854L3965.23 916.149ZM3656.2 848.446L3526.17 845.016L3525.9 855.013L3655.94 858.442L3656.2 848.446ZM3526.17 845.016C3523.4 844.943 3521.17 842.702 3521.12 839.929L3511.12 840.12C3511.27 848.238 3517.79 854.799 3525.9 855.013L3526.17 845.016ZM3521.12 839.929L3519.93 777.695L3509.93 777.886L3511.12 840.12L3521.12 839.929ZM3241.07 262.557C3239.1 260.37 3239.34 256.982 3241.6 255.097L3235.2 247.415C3228.58 252.933 3227.87 262.849 3233.64 269.252L3241.07 262.557ZM3241.6 255.097L3281.1 222.184L3274.7 214.502L3235.2 247.415L3241.6 255.097ZM3281.1 222.184C3283.17 220.456 3286.22 220.606 3288.12 222.53L3295.24 215.514C3289.7 209.884 3280.76 209.444 3274.7 214.502L3281.1 222.184ZM3908 634.215C3908.98 634.672 3911.25 636.377 3914.93 639.872C3918.42 643.191 3922.74 647.686 3927.71 653.124C3937.63 663.99 3949.96 678.414 3963.09 694.258C3989.35 725.933 4018.71 763.104 4038.31 788.422L4046.22 782.3C4026.58 756.929 3997.15 719.665 3970.79 687.875C3957.62 671.986 3945.18 657.42 3935.09 646.379C3930.05 640.864 3925.55 636.175 3921.82 632.624C3918.27 629.249 3914.9 626.398 3912.23 625.153L3908 634.215ZM4038.31 788.422C4038.97 789.266 4039.32 790.254 4039.36 791.354L4049.35 791.016C4049.25 787.85 4048.18 784.831 4046.22 782.3L4038.31 788.422ZM4039.33 986.255L4154.1 1103.04L4161.23 1096.03L4046.46 979.246L4039.33 986.255ZM4154.1 1103.04C4154.54 1103.49 4154.9 1104.02 4155.15 1104.6L4164.32 1100.6C4163.58 1098.9 4162.53 1097.35 4161.23 1096.03L4154.1 1103.04ZM4209.11 1228.34C4211.04 1232.76 4206.42 1237.19 4202.09 1235.08L4197.71 1244.07C4210.4 1250.25 4223.92 1237.28 4218.28 1224.34L4209.11 1228.34ZM4202.09 1235.08L4095.94 1183.36L4091.56 1192.35L4197.71 1244.07L4202.09 1235.08ZM4095.94 1183.36C4095.38 1183.09 4094.87 1182.72 4094.45 1182.27L4087.18 1189.14C4088.44 1190.47 4089.92 1191.55 4091.56 1192.35L4095.94 1183.36ZM3854.9 996.056L3851.8 928.234L3841.81 928.691L3844.91 996.513L3854.9 996.056ZM3851.8 928.234C3851.69 925.829 3853.15 923.963 3855.02 923.494L3852.57 913.798C3845.64 915.547 3841.5 922.036 3841.81 928.691L3851.8 928.234ZM3855.02 923.494C3882.49 916.56 3912.82 922.532 3939.99 936.395L3944.53 927.487C3915.88 912.869 3883.04 906.108 3852.57 913.798L3855.02 923.494ZM3939.53 936.134C3956.24 946.984 3960.63 961.02 3959.51 974.593C3958.36 988.577 3951.3 1002.27 3944.66 1011.13L3952.66 1017.13C3959.99 1007.35 3968.12 991.89 3969.48 975.412C3970.86 958.524 3965.06 940.786 3944.98 927.747L3939.53 936.134ZM3944.66 1011.13C3944.24 1011.68 3943.71 1012.1 3943.11 1012.34L3946.93 1021.58C3949.23 1020.63 3951.2 1019.08 3952.66 1017.13L3944.66 1011.13ZM3943.11 1012.34C3929.45 1017.99 3913.16 1017.72 3897.43 1014.49C3881.75 1011.28 3867.16 1005.25 3857.29 1000.04L3852.63 1008.88C3863.16 1014.44 3878.64 1020.85 3895.42 1024.29C3912.13 1027.71 3930.68 1028.3 3946.93 1021.58L3943.11 1012.34ZM3857.29 1000.04C3855.94 999.325 3854.99 997.858 3854.9 996.056L3844.91 996.513C3845.14 1001.58 3847.9 1006.39 3852.63 1008.88L3857.29 1000.04ZM4078.07 919.309C4071.42 898.276 4062.76 888.619 4056.81 882.007L4049.38 888.702C4054.86 894.786 4062.49 903.203 4068.53 922.32L4078.07 919.309ZM4056.81 882.007C4052.2 876.901 4050.95 875.16 4051.09 872.234L4041.11 871.734C4040.72 879.444 4045.34 884.222 4049.38 888.702L4056.81 882.007ZM3974.86 923.691C3974.85 923.67 3974.84 923.648 3974.83 923.627L3965.97 928.277C3965.98 928.297 3966 928.318 3966.01 928.338L3974.86 923.691ZM3788.5 863.074L3724.19 786.83L3716.54 793.278L3780.86 869.522L3788.5 863.074ZM3571.13 628.763L3509.48 560.365L3502.05 567.06L3563.7 635.458L3571.13 628.763ZM3509.48 560.365L3241.07 262.557L3233.64 269.252L3502.05 567.06L3509.48 560.365ZM3504.76 558.815C3493.6 561.112 3475.84 565.696 3458.66 572.029C3441.72 578.271 3424.4 586.54 3414.96 596.572L3422.24 603.426C3429.93 595.254 3445.23 587.634 3462.12 581.412C3478.76 575.28 3496.02 570.823 3506.78 568.61L3504.76 558.815ZM3414.96 596.572C3409.87 601.974 3396.6 613.383 3379.09 627.688C3361.69 641.896 3340.39 658.725 3319.5 674.851C3298.61 690.98 3278.15 706.381 3262.44 717.738C3254.58 723.422 3247.95 728.06 3243.06 731.264C3240.61 732.871 3238.66 734.071 3237.26 734.852C3236.55 735.246 3236.06 735.486 3235.76 735.613C3235.24 735.834 3235.68 735.552 3236.55 735.552L3236.55 745.552C3237.92 745.552 3239.15 745.04 3239.68 744.813C3240.43 744.493 3241.26 744.069 3242.11 743.595C3243.83 742.639 3246.01 741.285 3248.54 739.628C3253.62 736.3 3260.39 731.558 3268.3 725.843C3284.13 714.402 3304.67 698.932 3325.61 682.767C3346.55 666.6 3367.92 649.713 3385.41 635.434C3402.78 621.251 3416.61 609.403 3422.24 603.426L3414.96 596.572ZM3236.55 735.552C3235.38 735.552 3234.16 735.817 3233.16 736.083C3232.07 736.372 3230.84 736.775 3229.52 737.253C3226.88 738.21 3223.64 739.561 3220.04 741.174C3212.81 744.406 3203.85 748.803 3194.76 753.515C3176.77 762.84 3157.58 773.766 3150.43 779.482L3156.68 787.291C3162.92 782.298 3181.21 771.807 3199.36 762.392C3208.35 757.734 3217.12 753.43 3224.12 750.303C3227.62 748.737 3230.61 747.494 3232.93 746.653C3234.09 746.232 3235.02 745.934 3235.73 745.747C3236.52 745.537 3236.72 745.552 3236.55 745.552L3236.55 735.552ZM3150.43 779.482C3149.94 779.881 3148.55 780.782 3146.03 782.237C3143.62 783.63 3140.44 785.387 3136.56 787.463C3128.82 791.612 3118.44 796.972 3106.27 803.124C3081.94 815.424 3050.56 830.844 3019.04 845.976C2987.52 861.109 2955.9 875.939 2931.08 887.062C2918.67 892.626 2908 897.245 2899.92 900.507C2895.87 902.14 2892.52 903.412 2889.95 904.29C2888.66 904.729 2887.62 905.053 2886.8 905.272C2886.4 905.38 2886.08 905.456 2885.83 905.505C2885.71 905.529 2885.62 905.545 2885.55 905.556C2885.48 905.566 2885.45 905.568 2885.45 905.568L2886.22 915.538C2888.03 915.399 2890.55 914.65 2893.18 913.754C2896 912.793 2899.54 911.444 2903.66 909.78C2911.92 906.449 2922.72 901.771 2935.17 896.187C2960.1 885.014 2991.81 870.144 3023.37 854.991C3054.93 839.837 3086.38 824.386 3110.78 812.048C3122.98 805.881 3133.44 800.48 3141.29 796.278C3145.2 794.178 3148.5 792.363 3151.04 790.893C3153.47 789.484 3155.51 788.231 3156.68 787.291L3150.43 779.482ZM2885.45 905.568C2871.37 906.651 2825.8 912.294 2804.89 914.963L2806.16 924.883C2827.19 922.197 2872.46 916.597 2886.22 915.538L2885.45 905.568ZM2384.98 1737.92C2367.17 1753.27 2337.75 1771.88 2311.24 1787.56C2298.04 1795.38 2285.65 1802.41 2275.93 1807.89C2266.31 1813.31 2259.07 1817.33 2256.43 1818.98L2261.73 1827.46C2264.11 1825.97 2270.98 1822.15 2280.84 1816.6C2290.59 1811.11 2303.04 1804.04 2316.33 1796.17C2342.81 1780.5 2372.95 1761.49 2391.51 1745.49L2384.98 1737.92ZM2256.43 1818.98C2248.55 1823.91 2069.51 1923.69 1980.76 1973.09L1985.63 1981.83C2074.11 1932.58 2253.56 1832.56 2261.73 1827.46L2256.43 1818.98ZM3288.12 222.53L3618.5 558.074L3625.63 551.058L3295.24 215.514L3288.12 222.53ZM3618.5 558.074L3633.05 572.849L3640.17 565.833L3625.63 551.058L3618.5 558.074ZM5993.68 1760.99C5988.6 1756.05 5979.6 1749.36 5968.74 1744.97C5957.88 1740.58 5944.63 1738.28 5931.52 1743.02L5934.92 1752.43C5944.92 1748.81 5955.48 1750.4 5964.99 1754.24C5974.5 1758.09 5982.44 1764.01 5986.71 1768.16L5993.68 1760.99ZM5931.52 1743.02C5916.16 1748.57 5902.33 1759.33 5890.59 1769.17C5884.59 1774.19 5879.27 1778.87 5874.25 1782.85C5869.22 1786.85 5865 1789.75 5861.43 1791.28L5865.37 1800.47C5870.24 1798.38 5875.34 1794.76 5880.47 1790.68C5885.61 1786.6 5891.27 1781.64 5897.01 1776.83C5908.74 1767.01 5921.39 1757.31 5934.92 1752.43L5931.52 1743.02ZM5861.43 1791.28C5858.02 1792.74 5853.24 1793.55 5847.12 1793.99C5841.02 1794.44 5834.23 1794.48 5826.75 1794.69C5812.16 1795.09 5795.36 1796.07 5781.09 1802.55L5785.23 1811.66C5797.44 1806.11 5812.34 1805.08 5827.03 1804.68C5834.2 1804.49 5841.45 1804.43 5847.84 1803.97C5854.2 1803.51 5860.36 1802.62 5865.37 1800.47L5861.43 1791.28ZM5781.09 1802.55C5774.13 1805.71 5753.41 1817.75 5726.49 1833.96C5699.4 1850.26 5665.67 1871.02 5632.44 1891.84C5599.22 1912.67 5566.48 1933.58 5541.38 1950.2C5528.84 1958.51 5518.16 1965.77 5510.28 1971.42C5506.34 1974.24 5503.06 1976.69 5500.57 1978.7C5498.26 1980.55 5496.13 1982.39 5495.02 1983.93L5503.13 1989.79C5503.12 1989.8 5503.18 1989.72 5503.37 1989.52C5503.55 1989.33 5503.79 1989.09 5504.12 1988.78C5504.78 1988.18 5505.68 1987.41 5506.83 1986.49C5509.11 1984.66 5512.23 1982.32 5516.11 1979.55C5523.84 1974 5534.39 1966.82 5546.9 1958.54C5571.91 1941.99 5604.57 1921.12 5637.75 1900.32C5670.94 1879.52 5704.61 1858.79 5731.64 1842.52C5758.83 1826.16 5778.94 1814.52 5785.23 1811.66L5781.09 1802.55ZM5495.02 1983.93C5489.86 1991.09 5424.79 2074.57 5360.79 2158.37C5328.83 2200.2 5297.19 2242.06 5273.52 2274.38C5261.69 2290.53 5251.83 2304.34 5244.91 2314.59C5241.45 2319.7 5238.69 2323.99 5236.77 2327.28C5235.81 2328.91 5235.02 2330.38 5234.45 2331.62C5234.16 2332.24 5233.9 2332.88 5233.69 2333.51C5233.52 2334.06 5233.27 2334.94 5233.27 2335.94L5243.27 2335.94C5243.27 2336.49 5243.15 2336.77 5243.21 2336.58C5243.25 2336.46 5243.34 2336.21 5243.53 2335.8C5243.91 2334.98 5244.52 2333.83 5245.4 2332.32C5247.16 2329.32 5249.78 2325.24 5253.19 2320.19C5260.01 2310.1 5269.78 2296.41 5281.59 2280.29C5305.19 2248.06 5336.79 2206.26 5368.74 2164.44C5432.53 2080.91 5497.87 1997.08 5503.13 1989.79L5495.02 1983.93ZM5233.27 2335.94C5233.27 2338.17 5233.63 2341.01 5234.1 2344.05C5234.58 2347.14 5235.23 2350.83 5235.9 2354.77C5237.25 2362.74 5238.71 2372.18 5239.3 2382.08C5240.48 2402.11 5237.97 2422.78 5224.97 2436.87L5232.31 2443.66C5248.2 2426.45 5250.5 2402.18 5249.28 2381.49C5248.66 2371.02 5247.12 2361.15 5245.76 2353.1C5245.07 2349.03 5244.45 2345.52 5243.98 2342.52C5243.51 2339.48 5243.27 2337.32 5243.27 2335.94L5233.27 2335.94ZM5224.97 2436.87C5202.09 2461.65 5154.81 2503.04 5133.93 2520.71L5140.39 2528.34C5161.23 2510.7 5208.97 2468.95 5232.31 2443.66L5224.97 2436.87ZM4908.37 3404.43C4908.51 3404.04 4908.44 3404.42 4907.04 3405.78C4905.85 3406.95 4904.12 3408.42 4901.84 3410.2C4897.3 3413.76 4890.96 3418.27 4883.28 3423.56C4875.6 3428.83 4866.68 3434.83 4856.99 3441.35C4847.32 3447.86 4836.9 3454.89 4826.29 3462.22C4805.07 3476.87 4782.97 3492.77 4764.29 3508.22C4745.75 3523.55 4730.07 3538.83 4722.19 3552.28L4730.82 3557.33C4737.73 3545.53 4752.19 3531.2 4770.66 3515.92C4789.01 3500.76 4810.83 3485.05 4831.97 3470.45C4842.53 3463.16 4852.91 3456.16 4862.58 3449.64C4872.24 3443.14 4881.22 3437.11 4888.94 3431.8C4896.65 3426.49 4903.21 3421.84 4908.01 3418.07C4910.4 3416.2 4912.45 3414.47 4914.02 3412.95C4915.38 3411.63 4917.04 3409.84 4917.77 3407.85L4908.37 3404.43ZM5139.61 2520.17C5131.06 2515.35 5116.31 2508.5 5099.51 2503.37C5082.78 2498.27 5063.53 2494.72 5046.17 2496.96L5047.45 2506.88C5062.78 2504.9 5080.45 2508.01 5096.59 2512.94C5112.67 2517.84 5126.76 2524.4 5134.7 2528.88L5139.61 2520.17ZM4876.91 2466.76C4869.69 2468.56 4857.85 2473.85 4843.91 2481.09C4829.81 2488.41 4813.14 2497.95 4796.09 2508.54C4762.09 2529.67 4726.07 2555.3 4705.85 2576.2L4713.03 2583.15C4732.35 2563.19 4767.49 2538.08 4801.36 2517.04C4818.24 2506.55 4834.69 2497.15 4848.51 2489.97C4862.49 2482.71 4873.39 2477.95 4879.34 2476.46L4876.91 2466.76ZM3936.72 2969.04C3922.99 2974.27 3886.9 2986.41 3852.2 2998.3C3834.91 3004.23 3817.99 3010.09 3804.48 3014.97C3791.18 3019.77 3780.69 3023.78 3776.64 3025.99L3781.43 3034.77C3784.64 3033.02 3794.24 3029.29 3807.87 3024.37C3821.3 3019.53 3838.15 3013.69 3855.45 3007.76C3889.94 2995.94 3926.34 2983.69 3940.28 2978.38L3936.72 2969.04ZM3776.64 3025.99C3765.04 3032.32 3722.34 3060.99 3701.27 3075.32L3706.89 3083.59C3728.23 3069.08 3770.38 3040.8 3781.43 3034.77L3776.64 3025.99ZM3699.57 3076.11C3577.17 3110.41 3393.28 3163.47 3237.75 3211.68C3160 3235.78 3089.27 3258.69 3036.85 3277.44C3010.64 3286.81 2988.93 3295.17 2973.16 3302.15C2965.29 3305.63 2958.8 3308.82 2953.94 3311.65C2951.51 3313.07 2949.4 3314.45 2947.69 3315.78C2946.06 3317.06 2944.48 3318.55 2943.46 3320.26L2952.03 3325.4C2952.13 3325.25 2952.58 3324.66 2953.87 3323.65C2955.08 3322.7 2956.77 3321.57 2958.97 3320.29C2963.37 3317.72 2969.49 3314.71 2977.21 3311.29C2992.64 3304.46 3014.09 3296.2 3040.21 3286.85C3092.43 3268.18 3163 3245.32 3240.71 3221.23C3396.12 3173.06 3579.91 3120.02 3702.26 3085.74L3699.57 3076.11ZM2943.46 3320.26C2932.46 3338.6 2921.91 3351.53 2906.02 3359.26C2890.04 3367.04 2867.89 3369.91 2832.92 3366.23L2831.87 3376.17C2867.6 3379.93 2891.96 3377.23 2910.4 3368.26C2928.93 3359.24 2940.71 3344.27 2952.03 3325.4L2943.46 3320.26ZM2832.92 3366.23C2824.64 3365.36 2811.87 3362.07 2795.54 3356.75C2779.3 3351.45 2759.86 3344.24 2738.37 3335.68C2695.41 3318.58 2644.45 3296.18 2594.97 3273.18C2545.49 3250.18 2497.54 3226.61 2460.59 3207.18C2442.11 3197.46 2426.43 3188.8 2414.71 3181.78C2408.84 3178.27 2404.01 3175.2 2400.34 3172.64C2396.55 3169.99 2394.34 3168.12 2393.4 3167.01L2385.8 3173.52C2387.65 3175.67 2390.79 3178.16 2394.61 3180.83C2398.55 3183.59 2403.6 3186.79 2409.57 3190.37C2421.52 3197.52 2437.38 3206.27 2455.94 3216.03C2493.06 3235.56 2541.16 3259.2 2590.75 3282.25C2640.34 3305.29 2691.48 3327.78 2734.67 3344.97C2756.27 3353.57 2775.93 3360.87 2792.44 3366.25C2808.85 3371.61 2822.47 3375.18 2831.87 3376.17L2832.92 3366.23ZM2393.4 3167.01C2390.87 3164.07 2384.53 3158.27 2375.56 3150.48C2366.44 3142.57 2354.29 3132.31 2339.83 3120.3C2310.9 3096.26 2272.69 3065.13 2231.06 3031.49C2147.8 2964.2 2050.79 2886.86 1986.86 2836.16L1980.65 2843.99C2044.56 2894.68 2141.54 2972.01 2224.78 3039.27C2266.4 3072.9 2304.56 3104 2333.43 3127.99C2347.87 3139.98 2359.97 3150.19 2369 3158.03C2378.17 3166 2383.86 3171.26 2385.8 3173.52L2393.4 3167.01ZM4494.63 2688.01C4493.62 2688.01 4492.52 2688.21 4491.59 2688.41C4490.57 2688.64 4489.39 2688.96 4488.08 2689.34C4485.45 2690.12 4482.09 2691.25 4478.14 2692.66C4470.22 2695.48 4459.69 2699.53 4447.36 2704.46L4451.07 2713.74C4463.35 2708.83 4473.75 2704.84 4481.5 2702.08C4485.38 2700.69 4488.54 2699.64 4490.91 2698.93C4492.1 2698.58 4493.05 2698.33 4493.75 2698.18C4494.54 2698 4494.76 2698.01 4494.63 2698.01L4494.63 2688.01ZM4447.36 2704.46C4409.39 2719.63 4354.01 2743.28 4304.39 2765.62C4254.97 2787.87 4210.69 2809.08 4195.34 2819.32L4200.89 2827.64C4215.38 2817.97 4258.76 2797.13 4308.49 2774.74C4358.02 2752.44 4413.26 2728.85 4451.07 2713.74L4447.36 2704.46ZM5412.61 3082.81C5272.44 3168.43 5020.87 3323.79 4937.66 3380.89L4943.32 3389.14C5026.26 3332.22 5277.55 3177.03 5417.82 3091.35L5412.61 3082.81ZM4937.66 3380.89C4929.27 3386.66 4922.52 3391.46 4917.75 3395.12C4915.37 3396.94 4913.41 3398.54 4911.96 3399.86C4911.24 3400.52 4910.57 3401.17 4910.02 3401.8C4909.57 3402.31 4908.8 3403.24 4908.37 3404.43L4917.77 3407.85C4917.53 3408.5 4917.24 3408.74 4917.54 3408.39C4917.75 3408.15 4918.11 3407.78 4918.69 3407.25C4919.84 3406.21 4921.55 3404.81 4923.83 3403.06C4928.4 3399.56 4934.97 3394.87 4943.32 3389.14L4937.66 3380.89ZM4445.17 2712.04L4484.59 2766.28L4492.68 2760.4L4453.26 2706.16L4445.17 2712.04ZM5046.17 2496.96C5037.33 2498.1 5024.93 2496.83 5010.34 2494.05C4995.87 2491.29 4979.76 2487.16 4963.7 2482.88L4961.13 2492.54C4977.19 2496.82 4993.61 2501.04 5008.47 2503.87C5023.21 2506.68 5036.94 2508.23 5047.45 2506.88L5046.17 2496.96ZM4491.15 2767.66L4964.93 2492.03L4959.9 2483.39L4486.12 2759.02L4491.15 2767.66ZM4484.59 2766.28L4519.39 2814.15L4527.48 2808.27L4492.68 2760.4L4484.59 2766.28ZM4525.98 2815.52L5049.36 2506.22L5044.27 2497.61L4520.89 2806.91L4525.98 2815.52ZM4519.39 2814.15L4553.12 2860.56L4561.21 2854.68L4527.48 2808.27L4519.39 2814.15ZM4559.65 2861.95L5139.65 2528.86L5134.67 2520.19L4554.67 2853.28L4559.65 2861.95ZM5134.14 2528.51C5147.84 2538.9 5165.85 2552.69 5184.64 2567.33L5190.79 2559.44C5171.95 2544.77 5153.92 2530.95 5140.18 2520.54L5134.14 2528.51ZM4553.12 2860.56L4589.76 2910.97L4597.85 2905.09L4561.21 2854.68L4553.12 2860.56ZM5185.2 2559.06L4591.29 2903.7L4596.31 2912.35L5190.22 2567.71L5185.2 2559.06ZM5184.64 2567.33C5196.82 2576.81 5209.32 2586.65 5221.21 2596.13L5227.45 2588.32C5215.52 2578.8 5202.99 2568.94 5190.79 2559.44L5184.64 2567.33ZM4589.76 2910.97L4620.68 2953.51L4628.77 2947.63L4597.85 2905.09L4589.76 2910.97ZM5221.76 2587.93L4622.16 2946.28L4627.29 2954.86L5226.89 2596.52L5221.76 2587.93ZM5221.21 2596.13C5239.31 2610.59 5255.93 2624.2 5267.73 2634.54L5274.32 2627.01C5262.34 2616.53 5245.58 2602.8 5227.45 2588.32L5221.21 2596.13ZM5267.73 2634.54C5272.11 2638.37 5275.78 2641.72 5278.61 2644.47C5281.52 2647.3 5283.29 2649.27 5284.08 2650.4L5292.3 2644.71C5290.91 2642.71 5288.51 2640.15 5285.59 2637.3C5282.58 2634.38 5278.76 2630.9 5274.32 2627.01L5267.73 2634.54ZM4620.68 2953.51L4661.87 3010.19L4669.96 3004.31L4628.77 2947.63L4620.68 2953.51ZM5268.38 2626.53L4663.28 3003L4668.56 3011.49L5273.67 2635.02L5268.38 2626.53ZM4661.87 3010.19L4692.4 3052.19L4700.49 3046.31L4669.96 3004.31L4661.87 3010.19ZM5284.08 2650.4C5286.3 2653.62 5293.12 2666.25 5302.86 2685.2L5311.75 2680.63C5302.19 2662.01 5295 2648.61 5292.3 2644.71L5284.08 2650.4ZM4699.02 3053.54L5309.88 2687.2L5304.74 2678.62L4693.88 3044.97L4699.02 3053.54ZM5302.86 2685.2C5309.71 2698.52 5317.9 2714.77 5326.76 2732.61L5335.72 2728.16C5326.85 2710.29 5318.63 2694 5311.75 2680.63L5302.86 2685.2ZM4692.4 3052.19L4727.39 3100.33L4735.48 3094.45L4700.49 3046.31L4692.4 3052.19ZM5328.63 2726.12L4728.83 3093.13L4734.05 3101.66L5333.85 2734.65L5328.63 2726.12ZM4727.39 3100.33L4759.87 3145.01L4767.96 3139.13L4735.48 3094.45L4727.39 3100.33ZM5326.76 2732.61C5334.9 2749.01 5343.61 2766.75 5352.34 2784.8L5361.34 2780.45C5352.59 2762.37 5343.88 2744.59 5335.72 2728.16L5326.76 2732.61ZM4766.5 3146.35L5359.43 2786.9L5354.25 2778.35L4761.32 3137.79L4766.5 3146.35ZM5352.34 2784.8C5360.2 2801.05 5368.08 2817.55 5375.61 2833.55L5384.66 2829.29C5377.11 2813.26 5369.21 2796.73 5361.34 2780.45L5352.34 2784.8ZM4759.87 3145.01L4795.54 3194.09L4803.63 3188.21L4767.96 3139.13L4759.87 3145.01ZM5377.5 2827.17L4796.95 3186.9L4802.22 3195.4L5382.77 2835.67L5377.5 2827.17ZM4795.54 3194.09L4829.27 3240.49L4837.36 3234.61L4803.63 3188.21L4795.54 3194.09ZM5375.61 2833.55C5384.74 2852.96 5393.34 2871.63 5400.72 2888.21L5409.86 2884.14C5402.44 2867.48 5393.81 2848.75 5384.66 2829.29L5375.61 2833.55ZM5400.72 2888.21C5407.95 2904.44 5413.98 2918.63 5418.2 2929.53C5420.32 2934.99 5421.95 2939.56 5423.05 2943.13C5424.21 2946.9 5424.59 2948.98 5424.59 2949.76L5434.59 2949.76C5434.59 2947.29 5433.74 2943.87 5432.61 2940.19C5431.41 2936.3 5429.68 2931.48 5427.53 2925.92C5423.22 2914.79 5417.11 2900.43 5409.86 2884.14L5400.72 2888.21ZM4835.93 3241.81L5407.91 2890.43L5402.67 2881.91L4830.7 3233.29L4835.93 3241.81ZM4829.27 3240.49L4870.85 3297.7L4878.94 3291.82L4837.36 3234.61L4829.27 3240.49ZM5426.95 2945.52L4872.25 3290.52L4877.53 3299.01L5432.23 2954.01L5426.95 2945.52ZM4870.85 3297.7L4903.65 3342.83L4911.74 3336.95L4878.94 3291.82L4870.85 3297.7ZM4903.65 3342.83L4936.45 3387.96L4944.54 3382.08L4911.74 3336.95L4903.65 3342.83ZM5424.59 2949.76C5424.59 2959.29 5422.87 2984.86 5420.74 3012.7L5430.71 3013.46C5432.83 2985.8 5434.59 2959.77 5434.59 2949.76L5424.59 2949.76ZM5420.74 3012.7C5418.96 3035.96 5416.91 3060.59 5415.38 3078.27L5425.35 3079.13C5426.88 3061.43 5428.93 3036.77 5430.71 3013.46L5420.74 3012.7ZM4910.36 3344.12L5428.4 3017.31L5423.06 3008.85L4905.03 3335.66L4910.36 3344.12ZM5986.41 1767.85C5991.93 1774.23 5999.49 1786.25 6003.7 1801.09C6007.89 1815.86 6008.68 1833.14 6001.17 1850.42L6010.34 1854.41C6018.99 1834.51 6017.97 1814.77 6013.32 1798.36C6008.69 1782.02 6000.38 1768.71 5993.98 1761.3L5986.41 1767.85ZM5942.69 1915.75C5930.36 1922.67 5911.52 1933.51 5895.03 1943.54C5886.79 1948.55 5879.09 1953.39 5873.07 1957.46C5870.07 1959.48 5867.43 1961.35 5865.34 1962.97C5863.37 1964.5 5861.5 1966.09 5860.37 1967.55L5868.26 1973.69C5868.54 1973.33 5869.49 1972.41 5871.46 1970.88C5873.32 1969.45 5875.75 1967.71 5878.67 1965.74C5884.5 1961.81 5892.04 1957.06 5900.23 1952.08C5916.59 1942.13 5935.33 1931.35 5947.59 1924.46L5942.69 1915.75ZM5860.37 1967.55C5859.36 1968.85 5856.01 1971.97 5850.6 1976.54C5845.39 1980.96 5838.7 1986.38 5831.46 1992.12C5816.98 2003.59 5800.43 2016.27 5789.36 2024.62L5795.39 2032.6C5806.49 2024.22 5823.11 2011.49 5837.67 1999.95C5844.94 1994.19 5851.73 1988.69 5857.06 1984.18C5862.21 1979.82 5866.48 1975.98 5868.26 1973.69L5860.37 1967.55ZM5787.19 2026.61L5705.03 2116.78L5712.42 2123.51L5794.58 2033.34L5787.19 2026.61ZM5710.75 2124.72L5761.16 2102.42L5757.12 2093.27L5706.71 2115.57L5710.75 2124.72ZM5763.59 2101.91H5847.99V2091.91H5763.59V2101.91ZM5858.65 2097.84L5946.7 2019.15L5940.04 2011.7L5851.99 2090.38L5858.65 2097.84ZM6001.17 1850.42C5991.9 1871.74 5977.52 1888.45 5964.6 1899.95L5971.24 1907.42C5984.94 1895.23 6000.35 1877.39 6010.34 1854.41L6001.17 1850.42ZM5964.6 1899.95C5955.82 1907.75 5947.84 1913.04 5942.81 1915.68L5947.46 1924.53C5953.32 1921.46 5961.96 1915.68 5971.24 1907.42L5964.6 1899.95ZM5952.09 2006.95C5952.01 1992.38 5952.93 1971.55 5955.96 1952.1C5957.48 1942.38 5959.51 1933.12 5962.16 1925.21C5964.83 1917.23 5968.01 1911.01 5971.62 1907.04L5964.22 1900.32C5959.26 1905.77 5955.54 1913.49 5952.68 1922.03C5949.79 1930.65 5947.65 1940.5 5946.08 1950.56C5942.94 1970.67 5942.01 1992.06 5942.09 2007L5952.09 2006.95ZM6007.06 1857.24C6025.95 1852.15 6054.29 1848.9 6078.09 1855.25C6089.92 1858.41 6100.37 1863.86 6108.08 1872.38C6115.75 1880.84 6121.04 1892.69 6122 1909.28L6131.98 1908.71C6130.92 1890.14 6124.89 1876.03 6115.49 1865.66C6106.15 1855.35 6093.8 1849.09 6080.67 1845.59C6054.55 1838.62 6024.29 1842.24 6004.45 1847.59L6007.06 1857.24ZM6122 1909.28C6124.51 1952.94 6123.01 2019.4 6119.6 2078.94C6117.9 2108.69 6115.72 2136.64 6113.35 2159.08C6110.96 2181.73 6108.41 2198.24 6106.07 2205.49L6115.58 2208.56C6118.3 2200.15 6120.92 2182.57 6123.3 2160.13C6125.69 2137.49 6127.87 2109.37 6129.58 2079.51C6133 2019.84 6134.52 1952.94 6131.98 1908.71L6122 1909.28ZM6106.07 2205.49C6100.56 2222.55 6103.09 2236.45 6108.51 2248.93C6111.18 2255.06 6114.55 2260.86 6117.91 2266.44C6121.31 2272.09 6124.67 2277.46 6127.61 2283.09L6136.47 2278.47C6133.35 2272.48 6129.76 2266.74 6126.47 2261.28C6123.14 2255.74 6120.07 2250.42 6117.68 2244.94C6113.01 2234.18 6110.98 2222.82 6115.58 2208.56L6106.07 2205.49ZM6127.61 2283.09C6131.04 2289.67 6137.36 2296.08 6143.19 2302.28C6149.28 2308.75 6155.34 2315.44 6159.61 2323.22C6163.81 2330.87 6166.24 2339.52 6165.01 2349.95C6163.77 2360.47 6158.74 2373.25 6147.21 2388.95L6155.27 2394.87C6167.48 2378.25 6173.44 2363.87 6174.94 2351.12C6176.46 2338.28 6173.4 2327.55 6168.38 2318.41C6163.42 2309.39 6156.54 2301.87 6150.47 2295.43C6144.16 2288.71 6139.1 2283.51 6136.47 2278.47L6127.61 2283.09ZM6147.21 2388.95C6123.74 2420.91 6109.51 2432.12 6100.55 2441.34C6095.93 2446.09 6092.49 2450.55 6090.37 2456.98C6088.32 2463.19 6087.64 2470.87 6087.64 2481.83L6097.64 2481.83C6097.64 2471.07 6098.35 2464.73 6099.87 2460.11C6101.32 2455.71 6103.62 2452.53 6107.72 2448.31C6116.18 2439.6 6131.25 2427.57 6155.27 2394.87L6147.21 2388.95ZM6087.64 2481.83C6087.64 2503.68 6087.37 2518.57 6085.21 2529.61C6083.12 2540.31 6079.33 2547.01 6072.31 2552.71L6078.62 2560.47C6087.77 2553.03 6092.57 2544.08 6095.02 2531.53C6097.41 2519.35 6097.64 2503.42 6097.64 2481.83L6087.64 2481.83ZM6072.31 2552.71C6069.25 2555.2 6067.24 2559.01 6065.79 2562.98C6064.31 2567.06 6063.21 2571.94 6062.34 2577.23C6060.59 2587.78 6059.61 2600.75 6058.53 2613.62C6057.45 2626.64 6056.26 2639.61 6054.15 2650.63C6051.99 2661.9 6049.03 2670.02 6045.12 2674.21L6052.43 2681.04C6058.46 2674.58 6061.79 2663.88 6063.97 2652.51C6066.2 2640.89 6067.42 2627.4 6068.5 2614.46C6069.59 2601.37 6070.54 2588.91 6072.2 2578.86C6073.04 2573.85 6074.01 2569.65 6075.19 2566.39C6076.41 2563.04 6077.64 2561.26 6078.62 2560.47L6072.31 2552.71ZM6045.12 2674.21C6040.57 2679.08 6028.81 2688 6012.76 2699.26C5996.9 2710.39 5977.37 2723.45 5957.74 2736.51C5938.13 2749.55 5918.43 2762.58 5902.3 2773.59C5886.31 2784.51 5873.43 2793.71 5867.76 2799L5874.59 2806.31C5879.58 2801.65 5891.73 2792.91 5907.94 2781.85C5924 2770.88 5943.63 2757.9 5963.28 2744.83C5982.9 2731.78 6002.52 2718.65 6018.5 2707.45C6034.28 2696.38 6047.02 2686.83 6052.43 2681.04L6045.12 2674.21ZM5867.76 2799C5865.54 2801.07 5860.89 2804.25 5853.96 2808.38C5847.15 2812.43 5838.49 2817.2 5828.55 2822.45C5808.66 2832.96 5783.81 2845.32 5758.69 2857.66C5733.59 2869.98 5708.19 2882.3 5687.34 2892.68C5666.59 2902.99 5649.95 2911.57 5642.55 2916.38L5648 2924.77C5654.81 2920.34 5670.84 2912.05 5691.79 2901.63C5712.62 2891.27 5737.93 2878.99 5763.09 2866.63C5788.23 2854.29 5813.19 2841.87 5833.22 2831.29C5843.23 2826 5852.06 2821.15 5859.07 2816.97C5865.97 2812.86 5871.48 2809.2 5874.59 2806.31L5867.76 2799ZM5642.55 2916.38C5628.03 2925.82 5610.62 2941.05 5594.5 2954.37C5586.34 2961.1 5578.48 2967.39 5571.28 2972.42C5564.01 2977.5 5557.78 2981.04 5552.86 2982.58L5555.84 2992.12C5562.28 2990.11 5569.55 2985.83 5577.01 2980.62C5584.56 2975.34 5592.68 2968.84 5600.86 2962.08C5617.42 2948.4 5634.11 2933.8 5648 2924.77L5642.55 2916.38ZM5552.86 2982.58C5547.66 2984.2 5540.61 2985.32 5532.26 2986.29C5528.12 2986.77 5523.75 2987.21 5519.21 2987.67C5514.68 2988.12 5510 2988.59 5505.3 2989.13C5486.8 2991.25 5466.8 2994.5 5453.6 3003.04L5459.03 3011.44C5469.98 3004.36 5487.63 3001.22 5506.43 2999.07C5511.05 2998.54 5515.67 2998.08 5520.21 2997.62C5524.73 2997.17 5529.18 2996.72 5533.42 2996.22C5541.8 2995.25 5549.67 2994.05 5555.84 2992.12L5552.86 2982.58ZM5453.6 3003.04C5444.34 3009.03 5438.07 3010.85 5434.27 3011.08C5430.41 3011.32 5429.67 3009.97 5429.91 3010.33L5421.55 3015.83C5423.94 3019.46 5428.83 3021.44 5434.89 3021.06C5441.02 3020.69 5448.96 3017.95 5459.03 3011.44L5453.6 3003.04ZM5705.66 2116.19L5673.45 2141.2L5679.58 2149.1L5711.79 2124.09L5705.66 2116.19ZM5979.62 3551.28L5908.63 3551.49L5908.66 3561.49L5979.65 3561.28L5979.62 3551.28ZM2583.01 1575.41C2570.79 1581.11 2550.67 1595.95 2528.05 1614.16L2534.33 1621.95C2557.14 1603.58 2576.32 1589.57 2587.24 1584.47L2583.01 1575.41ZM4195.34 2819.32C4186.63 2825.12 4170.31 2835.26 4149.83 2847.68L4155.01 2856.23C4175.49 2843.82 4191.98 2833.58 4200.89 2827.64L4195.34 2819.32ZM4149.83 2847.68C4114.16 2869.3 4066.09 2897.67 4024.26 2921.66C4003.34 2933.65 3984 2944.53 3968.57 2952.92C3952.99 2961.39 3941.72 2967.13 3936.72 2969.04L3940.28 2978.38C3946.03 2976.19 3957.95 2970.08 3973.34 2961.71C3988.87 2953.27 4008.28 2942.34 4029.23 2930.33C4071.13 2906.31 4119.27 2877.9 4155.01 2856.23L4149.83 2847.68ZM2528.05 1614.16C2515.65 1624.16 2502.34 1635.29 2488.95 1646.73L2495.44 1654.33C2508.79 1642.93 2522.02 1631.87 2534.33 1621.95L2528.05 1614.16ZM2488.95 1646.73C2447.21 1682.37 2403.73 1721.76 2384.98 1737.92L2391.51 1745.49C2410.94 1728.74 2453.33 1690.29 2495.44 1654.33L2488.95 1646.73ZM4705.85 2576.2C4693.49 2588.97 4668.18 2605.41 4638.63 2621.92C4609.25 2638.33 4576.25 2654.5 4548.98 2666.77L4553.09 2675.89C4580.56 2663.52 4613.83 2647.23 4643.5 2630.65C4673 2614.18 4699.52 2597.11 4713.03 2583.15L4705.85 2576.2ZM4548.98 2666.77C4534.58 2673.26 4521.82 2678.64 4512.08 2682.39C4507.2 2684.26 4503.13 2685.71 4500.01 2686.68C4498.45 2687.16 4497.18 2687.51 4496.2 2687.74C4495.71 2687.85 4495.33 2687.92 4495.04 2687.96C4494.73 2688.01 4494.61 2688.01 4494.63 2688.01L4494.63 2698.01C4496.76 2698.01 4499.82 2697.21 4502.98 2696.23C4506.39 2695.17 4510.68 2693.63 4515.66 2691.72C4525.64 2687.88 4538.58 2682.43 4553.09 2675.89L4548.98 2666.77ZM2890.51 1448.64C2877.59 1453.81 2848.94 1465.38 2813.98 1479.58L2817.74 1488.84C2852.7 1474.64 2881.33 1463.08 2894.22 1457.92L2890.51 1448.64ZM2813.98 1479.58C2730.17 1513.62 2609.72 1562.94 2583.01 1575.41L2587.24 1584.47C2613.65 1572.14 2733.76 1522.96 2817.74 1488.84L2813.98 1479.58ZM4963.7 2482.88C4945.63 2478.06 4927.56 2473.03 4912.37 2469.73L4910.25 2479.5C4925.14 2482.74 4942.87 2487.67 4961.13 2492.54L4963.7 2482.88ZM4912.37 2469.73C4905.03 2468.14 4898.23 2466.91 4892.33 2466.32C4886.54 2465.73 4881.18 2465.69 4876.91 2466.76L4879.34 2476.46C4881.89 2475.82 4885.86 2475.71 4891.33 2476.27C4896.69 2476.81 4903.07 2477.95 4910.25 2479.5L4912.37 2469.73ZM3912.23 625.153C3910.25 624.228 3906.7 623.162 3902.32 622.002C3897.78 620.801 3891.9 619.391 3884.98 617.819C3871.12 614.673 3852.91 610.846 3832.38 606.693L3830.4 616.495C3850.9 620.642 3869.02 624.451 3882.77 627.571C3889.64 629.131 3895.38 630.512 3899.76 631.67C3904.29 632.869 3906.96 633.731 3908 634.215L3912.23 625.153ZM3832.38 606.693C3772.55 594.589 3692.86 579.67 3643.67 570.688L3641.87 580.526C3691.04 589.503 3770.66 604.409 3830.4 616.495L3832.38 606.693ZM4155.15 1104.6L4162.23 1120.83L4171.4 1116.84L4164.32 1100.6L4155.15 1104.6ZM4162.23 1120.83L4209.11 1228.34L4218.28 1224.34L4171.4 1116.84L4162.23 1120.83ZM4094.45 1182.27L4092 1179.68L4084.73 1186.55L4087.18 1189.14L4094.45 1182.27ZM4092 1179.68L4034.57 1118.98L4027.31 1125.85L4084.73 1186.55L4092 1179.68ZM3037.14 1346.88C3014.65 1365.24 2973.87 1397 2938.54 1420.79L2944.12 1429.08C2979.81 1405.06 3020.86 1373.09 3043.46 1354.63L3037.14 1346.88ZM2938.54 1420.79C2919.42 1433.65 2902.25 1443.94 2890.51 1448.64L2894.22 1457.92C2907.05 1452.79 2924.99 1441.96 2944.12 1429.08L2938.54 1420.79ZM4039.36 791.354C4039.46 794.431 4039.58 797.835 4039.69 801.457L4049.69 801.138C4049.57 797.51 4049.46 794.099 4049.35 791.017L4039.36 791.354ZM4039.69 801.457C4040.52 827.334 4041.51 863.709 4041.11 871.734L4051.09 872.234C4051.52 863.677 4050.5 826.705 4049.69 801.138L4039.69 801.457ZM3465.21 1174.82C3470.73 1172.15 3477.45 1168.94 3484.91 1165.43L3480.65 1156.38C3473.16 1159.91 3466.41 1163.13 3460.86 1165.82L3465.21 1174.82ZM3484.91 1165.43C3513.97 1151.73 3554.14 1133.44 3579.48 1123.89L3575.95 1114.54C3550.19 1124.24 3509.69 1142.69 3480.65 1156.38L3484.91 1165.43ZM3579.48 1123.89C3584.46 1122.02 3588.8 1120.5 3592.34 1119.43L3589.44 1109.86C3585.61 1111.02 3581.04 1112.62 3575.95 1114.54L3579.48 1123.89ZM3077.08 1310.2C3082.95 1311.87 3088.89 1312.55 3094.74 1312.5L3094.64 1302.5C3089.64 1302.55 3084.66 1301.96 3079.82 1300.58L3077.08 1310.2ZM3094.74 1312.5C3117.01 1312.29 3138.29 1301.42 3150.18 1293.14L3144.46 1284.93C3133.38 1292.65 3114.08 1302.32 3094.64 1302.5L3094.74 1312.5ZM2757.56 845.866C2630.04 888.545 2462.09 948.365 2306.91 991.467L2309.58 1001.1C2465.1 957.908 2633.49 897.937 2760.74 855.349L2757.56 845.866ZM2306.91 991.467C2182.37 1026.06 2066.81 1049.65 1987.3 1045.25L1986.75 1055.24C2068.08 1059.74 2185.07 1035.69 2309.58 1001.1L2306.91 991.467ZM2326.89 1023.92L2312.76 994.141L2303.73 998.427L2317.85 1028.21L2326.89 1023.92ZM2809.96 917.621L2791.22 881.479L2782.34 886.083L2801.09 922.225L2809.96 917.621ZM2791.22 881.479L2776.8 853.68L2767.93 858.284L2782.34 886.083L2791.22 881.479ZM2323.84 1030.84L2788.25 888.562L2785.32 879L2320.91 1021.28L2323.84 1030.84ZM2349.35 1071.26L2326.89 1023.92L2317.85 1028.21L2340.31 1075.54L2349.35 1071.26ZM2346.41 1078.14L2807.1 924.667L2803.94 915.179L2343.25 1068.66L2346.41 1078.14ZM2382.93 1142.04L2349.35 1071.26L2340.31 1075.54L2373.89 1146.33L2382.93 1142.04ZM2800.95 921.939C2807.99 937.919 2816.03 955.87 2824.8 975.136L2833.9 970.991C2825.14 951.76 2817.12 933.847 2810.1 917.907L2800.95 921.939ZM2380.18 1148.86L2831.13 977.738L2827.58 968.389L2376.64 1139.51L2380.18 1148.86ZM2410.31 1199.77L2382.93 1142.04L2373.89 1146.33L2401.28 1204.05L2410.31 1199.77ZM2824.8 975.136C2832.46 991.96 2840.69 1009.79 2849.3 1028.18L2858.36 1023.94C2849.76 1005.58 2841.55 987.785 2833.9 970.991L2824.8 975.136ZM2407.62 1206.57L2855.65 1030.72L2852 1021.41L2403.97 1197.26L2407.62 1206.57ZM2433.97 1249.63L2410.31 1199.77L2401.28 1204.05L2424.93 1253.92L2433.97 1249.63ZM2849.3 1028.18C2856.55 1043.66 2864.07 1059.54 2871.77 1075.57L2880.78 1071.24C2873.1 1055.25 2865.59 1039.39 2858.36 1023.94L2849.3 1028.18ZM2431.3 1256.42L2878.13 1078.04L2874.42 1068.76L2427.59 1247.13L2431.3 1256.42ZM2459.4 1303.25L2433.97 1249.63L2424.93 1253.92L2450.37 1307.53L2459.4 1303.25ZM2871.77 1075.57C2879.55 1091.76 2887.51 1108.11 2895.53 1124.32L2904.5 1119.89C2896.49 1103.71 2888.55 1087.4 2880.78 1071.24L2871.77 1075.57ZM2456.79 1310.01L2901.92 1126.73L2898.11 1117.48L2452.98 1300.77L2456.79 1310.01ZM2480.92 1348.61L2459.4 1303.25L2450.37 1307.53L2471.89 1352.9L2480.92 1348.61ZM2895.53 1124.32C2903.26 1139.92 2911.05 1155.41 2918.81 1170.54L2927.7 1165.98C2919.97 1150.89 2912.2 1135.45 2904.5 1119.89L2895.53 1124.32ZM2478.3 1355.38L2925.15 1172.89L2921.36 1163.63L2474.51 1346.13L2478.3 1355.38ZM2506.53 1402.58L2480.92 1348.61L2471.89 1352.9L2497.49 1406.87L2506.53 1402.58ZM2918.81 1170.54C2928.21 1188.87 2937.57 1206.69 2946.72 1223.56L2955.51 1218.8C2946.4 1202 2937.08 1184.25 2927.7 1165.98L2918.81 1170.54ZM2503.9 1409.35L2953.01 1225.81L2949.23 1216.55L2500.12 1400.1L2503.9 1409.35ZM2946.72 1223.56C2952.49 1234.2 2958.18 1244.46 2963.74 1254.24L2972.44 1249.3C2966.91 1239.58 2961.26 1229.38 2955.51 1218.8L2946.72 1223.56ZM2524.37 1440.2L2506.53 1402.58L2497.49 1406.87L2515.34 1444.49L2524.37 1440.2ZM2966.13 1247.17L2517.9 1437.74L2521.81 1446.94L2970.05 1256.37L2966.13 1247.17ZM2544.23 1482.07L2524.37 1440.2L2515.34 1444.49L2535.2 1486.35L2544.23 1482.07ZM2963.74 1254.24C2970.68 1266.45 2977.43 1277.91 2983.91 1288.42L2992.43 1283.18C2986.02 1272.78 2979.33 1261.42 2972.44 1249.3L2963.74 1254.24ZM2541.74 1488.78L2990.19 1290.37L2986.15 1281.23L2537.69 1479.64L2541.74 1488.78ZM2983.91 1288.42C2991.74 1301.11 2999.18 1312.45 3006.1 1322.04L3014.21 1316.19C3007.47 1306.85 3000.17 1295.73 2992.43 1283.18L2983.91 1288.42ZM3006.1 1322.04C3012.17 1330.47 3017.89 1337.62 3023.16 1343.19C3028.35 1348.69 3033.38 1352.97 3038.12 1355.26L3042.48 1346.25C3039.38 1344.76 3035.35 1341.54 3030.43 1336.33C3025.58 1331.19 3020.14 1324.42 3014.21 1316.19L3006.1 1322.04ZM2589.65 1577.79L2566.94 1529.93L2557.9 1534.22L2580.61 1582.08L2589.65 1577.79ZM2566.94 1529.93L2544.23 1482.07L2535.2 1486.35L2557.9 1534.22L2566.94 1529.93ZM3008.01 1314.6L2560.27 1527.56L2564.57 1536.59L3012.3 1323.63L3008.01 1314.6ZM5847.99 2101.91C5851.92 2101.91 5855.72 2100.46 5858.65 2097.84L5851.99 2090.38C5850.89 2091.36 5849.47 2091.91 5847.99 2091.91V2101.91ZM5789.36 2024.62C5788.57 2025.22 5787.85 2025.88 5787.19 2026.61L5794.58 2033.34C5794.83 2033.06 5795.1 2032.82 5795.39 2032.6L5789.36 2024.62ZM3946.93 1021.58C3949.23 1020.63 3951.2 1019.07 3952.66 1017.13L3944.66 1011.13C3944.24 1011.68 3943.7 1012.1 3943.11 1012.34L3946.93 1021.58ZM3857.29 1000.04C3855.95 999.329 3854.98 997.847 3854.9 996.055L3844.91 996.513C3845.14 1001.57 3847.91 1006.39 3852.63 1008.88L3857.29 1000.04ZM3686.21 1004.96C3683.69 1003.91 3680.98 1003.49 3678.22 1003.79L3679.31 1013.73C3680.34 1013.62 3681.35 1013.77 3682.35 1014.18L3686.21 1004.96ZM3851.8 928.234C3851.69 925.829 3853.15 923.963 3855.02 923.494L3852.57 913.798C3845.64 915.547 3841.5 922.036 3841.81 928.692L3851.8 928.234ZM3295.24 215.514C3289.7 209.884 3280.76 209.444 3274.7 214.502L3281.1 222.184C3283.17 220.456 3286.22 220.606 3288.12 222.53L3295.24 215.514ZM2760.74 855.349C2763.52 854.419 2766.56 855.649 2767.93 858.284L2776.8 853.68C2773.19 846.706 2765.05 843.361 2757.56 845.866L2760.74 855.349ZM3235.2 247.415C3228.58 252.933 3227.87 262.849 3233.64 269.252L3241.07 262.557C3239.1 260.37 3239.34 256.982 3241.6 255.097L3235.2 247.415ZM4154.1 1103.04C4154.54 1103.49 4154.9 1104.02 4155.15 1104.6L4164.32 1100.6C4163.58 1098.9 4162.53 1097.35 4161.23 1096.03L4154.1 1103.04ZM4087.18 1189.14C4088.44 1190.46 4089.92 1191.55 4091.56 1192.35L4095.94 1183.36C4095.38 1183.09 4094.87 1182.72 4094.45 1182.27L4087.18 1189.14ZM3974.83 923.627C3972.83 919.828 3969.3 917.159 3965.23 916.149L3962.82 925.854C3964.22 926.2 3965.35 927.095 3965.97 928.277L3974.83 923.627ZM3964.8 1029.08C3960.62 1035.15 3961.08 1043.54 3966.45 1048.94L3973.54 1041.89C3971.74 1040.07 3971.44 1037.06 3973.04 1034.75L3964.8 1029.08ZM3511.12 840.12C3511.27 848.238 3517.79 854.799 3525.9 855.013L3526.17 845.016C3523.4 844.943 3521.17 842.702 3521.12 839.929L3511.12 840.12ZM3701.27 3075.32C3700.71 3075.69 3700.18 3075.94 3699.57 3076.11L3702.26 3085.74C3703.95 3085.27 3705.47 3084.55 3706.89 3083.59L3701.27 3075.32ZM3745.47 1200.99C3745.83 1202.4 3746.39 1203.83 3747.24 1205.2L3755.74 1199.92C3755.51 1199.56 3755.31 1199.1 3755.17 1198.53L3745.47 1200.99ZM3677.98 1109.36C3679.23 1109.34 3680.51 1109.75 3681.66 1110.58L3687.52 1102.48C3684.78 1100.49 3681.42 1099.31 3677.86 1099.36L3677.98 1109.36ZM4038.31 788.422C4038.95 789.242 4039.32 790.284 4039.36 791.354L4049.35 791.017C4049.25 787.88 4048.16 784.807 4046.22 782.3L4038.31 788.422ZM3725.12 1134.96C3727.67 1135.87 3729.43 1137.76 3729.96 1139.86L3739.66 1137.4C3738.18 1131.56 3733.65 1127.39 3728.49 1125.54L3725.12 1134.96ZM5761.16 2102.42C5761.93 2102.08 5762.75 2101.91 5763.59 2101.91V2091.91C5761.36 2091.91 5759.15 2092.37 5757.12 2093.27L5761.16 2102.42ZM3218.48 1180.4C3217.49 1181.35 3216.82 1182.38 3216.39 1183.09C3215.84 1183.97 3215.7 1184.25 3215.41 1184.66L3223.55 1190.47C3223.86 1190.03 3224.13 1189.6 3224.34 1189.25C3224.62 1188.8 3224.69 1188.68 3224.89 1188.34C3225.22 1187.81 3225.36 1187.65 3225.42 1187.6L3218.48 1180.4ZM5946.7 2019.15C5950.2 2016.02 5952.11 2011.56 5952.09 2006.95L5942.09 2007C5942.1 2008.83 5941.34 2010.53 5940.04 2011.7L5946.7 2019.15ZM5417.82 3091.35C5422.2 3088.68 5424.91 3084.16 5425.35 3079.13L5415.38 3078.27C5415.22 3080.21 5414.2 3081.84 5412.61 3082.81L5417.82 3091.35ZM4209.11 1228.34C4211.04 1232.76 4206.42 1237.19 4202.09 1235.08L4197.71 1244.07C4210.4 1250.25 4223.92 1237.28 4218.28 1224.34L4209.11 1228.34ZM3914.55 1143.99C3913.6 1142.93 3913.07 1141.57 3913.03 1140.15L3903.04 1140.38C3903.13 1144.17 3904.55 1147.8 3907.07 1150.63L3914.55 1143.99ZM3831.68 1183.89C3831.22 1183.02 3831 1182.04 3831.01 1181.05L3821.01 1180.88C3820.97 1183.52 3821.58 1186.12 3822.78 1188.46L3831.68 1183.89ZM3157.91 1282.06C3153.12 1281.06 3148.26 1282.29 3144.46 1284.93L3150.18 1293.14C3151.94 1291.91 3154.03 1291.46 3155.88 1291.85L3157.91 1282.06Z" fill="#7481A1"/>
<path d="M2043.2 26.3398H6238.67C6269.05 26.3398 6293.67 50.9642 6293.67 81.3398V2739.47V3496.53C6293.67 3526.9 6269.05 3551.53 6238.67 3551.53H2043.2C2012.82 3551.53 1988.2 3526.9 1988.2 3496.53V2154.33V81.3399C1988.2 50.9642 2012.82 26.3398 2043.2 26.3398Z" stroke="#7481A1" stroke-width="10"/>
</svg>
