<svg width="312" height="84" viewBox="0 0 312 84" fill="none" xmlns="http://www.w3.org/2000/svg">
<path d="M-0.0078125 81.7792V79.3441L1.84755 78.7643C3.471 78.1458 4.5533 77.3341 5.09445 76.3291C5.7129 75.3241 6.02213 73.9712 6.02213 72.2705C6.09944 67.864 6.13809 63.4575 6.13809 59.051C6.13809 54.5672 6.13809 50.0834 6.13809 45.5996V41.425C6.13809 36.9412 6.09944 32.496 6.02213 28.0895C6.02213 23.6057 6.02213 19.1219 6.02213 14.6381C6.02213 12.7828 5.75156 11.3912 5.21041 10.4636C4.66926 9.45857 3.54831 8.6855 1.84755 8.14435L-0.0078125 7.56455V5.12938H32.693C41.9699 5.12938 48.6956 6.86878 52.8702 10.3476C57.0447 13.7491 59.132 18.0783 59.132 23.3352C59.132 27.3551 57.6632 30.9886 54.7255 34.2355C51.7879 37.405 46.6469 39.6856 39.3028 41.0771C47.8066 42.0048 53.9525 44.2081 57.7405 47.6869C61.5285 51.1657 63.4226 55.4176 63.4226 60.4425C63.4226 62.9163 62.8814 65.4288 61.7991 67.9799C60.7168 70.4538 58.8615 72.7343 56.233 74.8216C53.6819 76.9089 50.2031 78.6097 45.7966 79.9239C41.3901 81.1608 35.824 81.7792 29.0983 81.7792H-0.0078125ZM22.6045 40.2654H28.0546C33.3115 40.2654 37.0995 39.1058 39.4187 36.7866C41.8153 34.3901 43.0135 30.3314 43.0135 24.6107C43.0135 18.6581 41.9312 14.4835 39.7666 12.087C37.602 9.69049 34.2005 8.49223 29.5621 8.49223H22.6045V40.2654ZM22.6045 78.4164H28.9823C34.7803 78.4164 39.1095 76.9862 41.9699 74.1259C44.8302 71.2655 46.2604 66.6657 46.2604 60.3266C46.2604 54.2193 44.8689 49.9288 42.0858 47.4549C39.3801 44.9038 34.8963 43.6283 28.6344 43.6283H22.6045V78.4164Z" fill="#6B7280"/>
<path d="M82.0632 18.001C79.5121 18.001 77.3475 17.1893 75.5694 15.5658C73.7914 13.9424 72.9023 11.8937 72.9023 9.41992C72.9023 6.86879 73.7914 4.82015 75.5694 3.27401C77.3475 1.65056 79.5121 0.838843 82.0632 0.838843C84.6143 0.838843 86.7789 1.65056 88.557 3.27401C90.335 4.82015 91.2241 6.86879 91.2241 9.41992C91.2241 11.8937 90.335 13.9424 88.557 15.5658C86.7789 17.1893 84.6143 18.001 82.0632 18.001ZM68.7277 81.7792V79.576L70.4672 79.1121C72.0133 78.6483 73.0569 77.9525 73.5981 77.0249C74.1392 76.0972 74.4485 74.8603 74.5258 73.3141V51.9774C74.5258 49.5809 74.5258 47.3776 74.5258 45.3677C74.5258 43.2804 74.4871 41.1544 74.4098 38.9898C74.4098 37.4437 74.1006 36.2454 73.4821 35.3951C72.941 34.4674 71.8973 33.8489 70.3512 33.5397L68.7277 33.1918V31.1045L89.0208 24.3788L90.4124 25.6544L90.0645 42.1208V73.4301C90.0645 74.9762 90.3351 76.2131 90.8762 77.1408C91.4947 78.0685 92.5383 78.7643 94.0071 79.2281L95.2827 79.576V81.7792H68.7277Z" fill="#6B7280"/>
<path d="M100.433 81.7792V79.576L102.172 78.9962C103.719 78.6097 104.762 77.9525 105.303 77.0249C105.922 76.0972 106.231 74.8603 106.231 73.3141V39.3377C106.154 37.637 105.844 36.3614 105.303 35.511C104.762 34.5833 103.719 33.9649 102.172 33.6557L100.433 33.1918V31.1045L119.335 24.3788L120.726 25.6544L121.77 35.8589V36.6706C122.929 34.506 124.398 32.496 126.176 30.6407C127.954 28.7853 129.887 27.2778 131.974 26.1182C134.062 24.9586 136.149 24.3788 138.236 24.3788C141.174 24.3788 143.377 25.1519 144.846 26.698C146.315 28.2442 147.049 30.2155 147.049 32.612C147.049 35.2404 146.315 37.2504 144.846 38.6419C143.377 39.9562 141.599 40.6133 139.512 40.6133C136.419 40.6133 133.752 39.2217 131.51 36.4387L131.278 36.2068C130.505 35.2791 129.616 34.7766 128.611 34.6993C127.684 34.5447 126.756 35.0085 125.828 36.0908C125.055 36.8639 124.321 37.7916 123.625 38.8739C123.007 39.8789 122.427 41.0771 121.886 42.4686V72.8503C121.886 74.3191 122.195 75.556 122.813 76.561C123.432 77.4887 124.475 78.1458 125.944 78.5323L129.423 79.576V81.7792H100.433Z" fill="#6B7280"/>
<path d="M173.479 83.4027C168.918 83.4027 164.821 82.3977 161.187 80.3877C157.554 78.3004 154.693 75.1308 152.606 70.879C150.596 66.5498 149.591 61.061 149.591 54.4126C149.591 47.7642 150.751 42.2367 153.07 37.8302C155.389 33.3464 158.481 29.9836 162.347 27.7417C166.212 25.4998 170.464 24.3788 175.102 24.3788C177.885 24.3788 180.553 24.7267 183.104 25.4225C185.655 26.0409 187.897 27.0073 189.829 28.3215V13.2466C189.829 11.6232 189.559 10.4636 189.018 9.76779C188.554 8.99472 187.549 8.41492 186.003 8.02839L183.684 7.56455V5.3613L203.861 0.375L205.368 1.41864L204.904 17.7691V73.546C204.904 75.0149 205.175 76.2518 205.716 77.2568C206.257 78.1845 207.224 78.8416 208.615 79.2281L209.891 79.576V81.7792L190.641 83.0548L189.598 78.1845C187.51 79.8079 185.114 81.0835 182.408 82.0112C179.702 82.9388 176.726 83.4027 173.479 83.4027ZM179.857 78.0685C183.181 78.0685 186.312 76.9862 189.25 74.8216V31.6843C186.389 29.9063 183.297 29.0172 179.973 29.0172C176.185 29.0172 172.938 31.0272 170.232 35.0472C167.526 38.9898 166.173 45.3677 166.173 54.1807C166.173 62.9937 167.449 69.1782 170 72.7343C172.551 76.2904 175.837 78.0685 179.857 78.0685Z" fill="#6B7280"/>
<path d="M228.599 18.001C226.048 18.001 223.883 17.1893 222.105 15.5658C220.327 13.9424 219.438 11.8937 219.438 9.41992C219.438 6.86879 220.327 4.82015 222.105 3.27401C223.883 1.65056 226.048 0.838843 228.599 0.838843C231.15 0.838843 233.315 1.65056 235.093 3.27401C236.871 4.82015 237.76 6.86879 237.76 9.41992C237.76 11.8937 236.871 13.9424 235.093 15.5658C233.315 17.1893 231.15 18.001 228.599 18.001ZM215.264 81.7792V79.576L217.003 79.1121C218.549 78.6483 219.593 77.9525 220.134 77.0249C220.675 76.0972 220.984 74.8603 221.062 73.3141V51.9774C221.062 49.5809 221.062 47.3776 221.062 45.3677C221.062 43.2804 221.023 41.1544 220.946 38.9898C220.946 37.4437 220.637 36.2454 220.018 35.3951C219.477 34.4674 218.433 33.8489 216.887 33.5397L215.264 33.1918V31.1045L235.557 24.3788L236.948 25.6544L236.6 42.1208V73.4301C236.6 74.9762 236.871 76.2131 237.412 77.1408C238.031 78.0685 239.074 78.7643 240.543 79.2281L241.819 79.576V81.7792H215.264Z" fill="#6B7280"/>
<path fill-rule="evenodd" clip-rule="evenodd" d="M274.029 22.7566C269.158 22.7566 264.984 23.7616 261.505 25.7715C258.026 27.7815 255.359 30.5646 253.504 34.1207C251.571 37.5995 250.605 41.6195 250.605 46.1806C250.605 47.1856 250.643 48.1519 250.721 49.0796C250.798 49.93 250.953 50.7417 251.185 51.5148H286.089C286.011 59.4774 284.542 65.1981 281.682 68.6769C278.744 72.1557 274.493 73.8951 268.926 73.8951C265.061 73.8951 261.93 73.2767 259.534 72.0398C257.137 70.7255 254.934 68.9088 252.924 66.5896L251.069 68.329C253.388 72.5809 256.557 75.9051 260.577 78.3016C264.52 80.6208 269.236 81.7804 274.724 81.7804C280.213 81.7804 285.045 80.6208 289.22 78.3016C293.394 75.9824 296.68 72.6582 299.076 68.329C301.395 63.9225 302.555 58.6657 302.555 52.5584C302.555 52.5584 301.743 42.2971 304.654 35.8664C307.031 30.6151 311.507 25.7715 311.507 25.7715C311.507 25.7715 304.313 26.8566 299.667 26.9691C295.039 27.0811 287.828 26.3513 287.828 26.3513C283.422 23.9548 278.822 22.7566 274.029 22.7566ZM280.522 28.0907C278.822 26.7765 276.85 26.1194 274.609 26.1194C270.511 26.1194 267.728 27.8588 266.259 31.3376C264.791 34.8164 264.481 40.4599 265.332 48.2679H286.089C285.934 42.4698 285.393 37.986 284.465 34.8164C283.46 31.5696 282.146 29.3277 280.522 28.0907Z" fill="#6B7280"/>
</svg>
